<svg height="479.99829pt" viewBox="0 1 479.99829 479.99829" width="479.99829pt" xmlns="http://www.w3.org/2000/svg"><path d="m392 432h-48c-13.253906 0-24 10.742188-24 24 0 13.253906 10.746094 24 24 24h48c13.253906 0 24-10.746094 24-24 0-13.257812-10.746094-24-24-24zm0 32h-48c-4.417969 0-8-3.582031-8-8 0-4.421875 3.582031-8 8-8h48c4.417969 0 8 3.578125 8 8 0 4.417969-3.582031 8-8 8zm0 0"/><path d="m256 448h16v16h-16zm0 0"/><path d="m192 464h32v16h-32zm0 0"/><path d="m248 272c-4.417969 0-8 3.578125-8 8v32c0 4.417969-3.582031 8-8 8s-8-3.582031-8-8v-32c0-4.421875-3.582031-8-8-8s-8 3.578125-8 8v32c0 13.253906 10.746094 24 24 24s24-10.746094 24-24v-32c0-4.421875-3.582031-8-8-8zm0 0"/><path d="m242.34375 111.597656-58.742188 58.746094c-2.082031 2.007812-2.914062 4.980469-2.183593 7.777344.734375 2.796875 2.917969 4.984375 5.714843 5.714844 2.796876.730468 5.769532-.101563 7.777344-2.183594l58.746094-58.742188c3.03125-3.140625 2.988281-8.128906-.097656-11.214844-3.085938-3.085937-8.074219-3.128906-11.214844-.097656zm0 0"/><path d="m167.59375 186.34375-16 16c-2.082031 2.007812-2.914062 4.980469-2.183594 7.777344.730469 2.796875 2.917969 4.984375 5.714844 5.714844 2.796875.730468 5.769531-.101563 7.777344-2.183594l16-16c3.035156-3.136719 2.988281-8.125-.097656-11.210938-3.085938-3.085937-8.074219-3.132812-11.210938-.097656zm0 0"/><path d="m127.59375 226.34375-29.089844 29.085938c-31.183594 31.265624-31.183594 81.871093 0 113.136718 3.125 3.125 8.191406 3.128906 11.316406.003906s3.128907-8.191406.003907-11.316406c-24.953125-25.011718-24.953125-65.5 0-90.511718l29.078125-29.089844c3.035156-3.136719 2.988281-8.125-.097656-11.210938-3.085938-3.085937-8.074219-3.132812-11.210938-.097656zm0 0"/><path d="m445.65625 2.34375c-3.125-3.125-8.1875-3.125-11.3125 0l-122.34375 122.34375-58.34375-58.34375c-3.125-3.125-8.1875-3.125-11.3125 0l-166.464844 166.453125c-41 41.097656-43.863281 106.6875-6.597656 151.203125h-45.28125c-13.253906 0-24 10.742188-24 24 0 13.253906 10.746094 24 24 24h288c13.253906 0 24-10.746094 24-24 0-13.257812-10.746094-24-24-24h-44.6875l36.886719-36.890625c1.632812 12.550781 12.730469 21.679687 25.359375 20.859375 12.632812-.824219 22.453125-11.3125 22.441406-23.96875v-44.691406l16-16v44.691406c0 13.253906 10.746094 24 24 24s24-10.746094 24-24v-96c0-2.125-.84375-4.15625-2.34375-5.65625l-58.34375-58.34375 122.34375-122.347656c3.121094-3.121094 3.121094-8.1875 0-11.308594zm-45.65625 232.964844v92.691406c0 4.417969-3.582031 8-8 8s-8-3.582031-8-8v-64c0-3.238281-1.949219-6.152344-4.9375-7.390625s-6.429688-.554687-8.71875 1.734375l-32 32c-1.5 1.5-2.34375 3.53125-2.34375 5.65625v48c0 4.417969-3.582031 8-8 8s-8-3.582031-8-8v-16c0-3.238281-1.949219-6.152344-4.9375-7.390625s-6.429688-.554687-8.71875 1.734375l-64 64c-2.285156 2.285156-2.972656 5.726562-1.734375 8.714844 1.238281 2.988281 4.15625 4.9375 7.390625 4.941406h64c4.417969 0 8 3.578125 8 8 0 4.417969-3.582031 8-8 8h-288c-4.417969 0-8-3.582031-8-8 0-4.421875 3.582031-8 8-8h64c3.234375-.003906 6.152344-1.953125 7.390625-4.941406 1.238281-2.988282.550781-6.429688-1.734375-8.714844l-6.464844-6.464844c-37.425781-37.515625-37.425781-98.246094 0-135.761718l160.808594-160.808594zm-56-78.621094-20.6875-20.6875 116.6875-116.691406 20.6875 20.691406zm0 0"/></svg>